<?xml version="1.0" encoding="utf-8"?>
<!-- Generator: Adobe Illustrator 18.1.1, SVG Export Plug-In . SVG Version: 6.00 Build 0)  -->
<svg version="1.1" id="Layer_1" xmlns="http://www.w3.org/2000/svg" xmlns:xlink="http://www.w3.org/1999/xlink" x="0px" y="0px"
	 viewBox="465 265 30 30" enable-background="new 465 265 30 30" xml:space="preserve">
<g opacity="0.55">
	<path d="M494.8,278.2c0.1,6.5-6.5,11.8-14.6,11.9c-1.4,0-2.7-0.1-4-0.4l-5.6,4.3v-6.5c-3.1-2.1-5.3-5.3-5.4-8.9
		c-0.1-6.5,6.5-11.8,14.6-11.9C488,266.6,494.7,271.7,494.8,278.2z"/>
</g>
<g>
	<path fill="#F2B4FF" d="M494.8,277.9c0.1,6.5-6.5,11.8-14.6,11.9c-1.4,0-2.7-0.1-4-0.4l-5.6,4.3v-6.5c-3.1-2.1-5.3-5.3-5.4-8.9
		c-0.1-6.5,6.5-11.8,14.6-11.9C488,266.2,494.7,271.4,494.8,277.9z"/>
</g>
<g>
	<path fill="#FFFFFF" d="M483,275.9l-3.1,6.4c-0.2,0.4-0.2,0.6-0.3,0.7c0,0.1,0,0.1,0.1,0.2c0.1,0.1,0.2,0.1,0.3,0.1
		c0.2,0,0.3,0,0.5-0.1c0.4-0.2,1-0.6,1.6-1.2l0.5,0.2c-1.5,1.6-3.1,2.3-4.7,2.3c-0.6,0-1.1-0.1-1.5-0.4c-0.4-0.2-0.5-0.5-0.5-0.9
		c0-0.2,0.1-0.5,0.3-0.9l2.1-4.3c0.2-0.4,0.3-0.7,0.3-0.9c0-0.1-0.1-0.3-0.3-0.4c-0.2-0.1-0.4-0.2-0.7-0.2c-0.2,0-0.3,0-0.5,0
		l0.2-0.4l4.9-0.4L483,275.9z M482.2,271.7c0.6,0,1.1,0.2,1.5,0.4s0.6,0.6,0.6,1c0,0.4-0.2,0.7-0.6,0.9s-0.9,0.4-1.5,0.3
		c-0.6,0-1.1-0.2-1.5-0.4c-0.4-0.3-0.6-0.6-0.6-1c0-0.4,0.2-0.7,0.6-0.9C481.1,271.8,481.6,271.6,482.2,271.7z"/>
</g>
<g>
	<path fill="#002067" d="M482.9,275.8l-3.1,6.4c-0.2,0.4-0.2,0.6-0.3,0.7c0,0.1,0,0.1,0.1,0.2c0.1,0.1,0.2,0.1,0.3,0.1
		c0.2,0,0.3,0,0.5-0.1c0.4-0.2,1-0.6,1.6-1.2l0.5,0.2c-1.5,1.6-3.1,2.3-4.7,2.3c-0.6,0-1.1-0.1-1.5-0.4c-0.4-0.2-0.5-0.5-0.5-0.9
		c0-0.2,0.1-0.5,0.3-0.9l2.1-4.3c0.2-0.4,0.3-0.7,0.3-0.9c0-0.1-0.1-0.3-0.3-0.4c-0.2-0.1-0.4-0.2-0.7-0.2c-0.2,0-0.3,0-0.5,0
		l0.2-0.4l4.9-0.4L482.9,275.8z M482.1,271.6c0.6,0,1.1,0.2,1.5,0.4s0.6,0.6,0.6,1c0,0.4-0.2,0.7-0.6,0.9s-0.9,0.4-1.5,0.3
		c-0.6,0-1.1-0.2-1.5-0.4c-0.4-0.3-0.6-0.6-0.6-1c0-0.4,0.2-0.7,0.6-0.9C481.1,271.7,481.6,271.5,482.1,271.6z"/>
</g>
<g display="none" opacity="0.96">
	<linearGradient id="SVGID_1_" gradientUnits="userSpaceOnUse" x1="503.1583" y1="266.4811" x2="503.1583" y2="281.3259">
		<stop  offset="0" style="stop-color:#FFFFFF"/>
		<stop  offset="1" style="stop-color:#000000;stop-opacity:0"/>
	</linearGradient>
	<path display="inline" fill="url(#SVGID_1_)" d="M522.3,281.3H484c0.3-8.2,8.6-14.7,19-14.8C513.5,266.4,522.1,273,522.3,281.3z"/>
</g>
</svg>
